inDegrees=no
num_controls=7
num_derivatives=13
num_iterations=182
num_multipliers=7
num_parameters=0
num_slacks=7
num_states=26
objective=5.423920
objective_accelerations=0.369717
objective_balance=0.041013
objective_effort=0.375351
objective_height=4.541279
objective_ligament=0.096560
solver_duration=1783.708859
status=Solve_Succeeded
success=true
DataType=double
version=3
OpenSimVersion=4.4-2022-07-23-0e9fedc
endheader
time	/jointset/ground_pelvis/pelvis_tilt/value	/jointset/ground_pelvis/pelvis_tx/value	/jointset/ground_pelvis/pelvis_ty/value	/jointset/hip_l/hip_flexion_l/value	/jointset/hip_l/hip_adduction_l/value	/jointset/hip_l/hip_rotation_l/value	/jointset/back/lumbar_extension/value	/jointset/patellofemoral_l/patellar_flexion_l/value	/jointset/knee_l/knee_flexion_l/value	/jointset/knee_l/knee_adduction_l/value	/jointset/knee_l/knee_rotation_l/value	/jointset/ankle_l/ankle_angle_l/value	/jointset/subtalar_l/subtalar_angle_l/value	/jointset/ground_pelvis/pelvis_tilt/speed	/jointset/ground_pelvis/pelvis_tx/speed	/jointset/ground_pelvis/pelvis_ty/speed	/jointset/hip_l/hip_flexion_l/speed	/jointset/hip_l/hip_adduction_l/speed	/jointset/hip_l/hip_rotation_l/speed	/jointset/back/lumbar_extension/speed	/jointset/patellofemoral_l/patellar_flexion_l/speed	/jointset/knee_l/knee_flexion_l/speed	/jointset/knee_l/knee_adduction_l/speed	/jointset/knee_l/knee_rotation_l/speed	/jointset/ankle_l/ankle_angle_l/speed	/jointset/subtalar_l/subtalar_angle_l/speed	/forceset/tau_hip_flexion_l	/forceset/tau_hip_adduction_l	/forceset/tau_hip_rotation_l	/forceset/tau_knee_flexion_l	/forceset/tau_ankle_angle_l	/forceset/tau_subtalar_angle_l	/forceset/tau_lumbar_extension	lambda_cid13_p0	lambda_cid13_p1	lambda_cid13_p2	lambda_cid13_p3	lambda_cid13_p4	lambda_cid13_p5	lambda_cid14_p0	/jointset/ground_pelvis/pelvis_tilt/accel	/jointset/ground_pelvis/pelvis_tx/accel	/jointset/ground_pelvis/pelvis_ty/accel	/jointset/hip_l/hip_flexion_l/accel	/jointset/hip_l/hip_adduction_l/accel	/jointset/hip_l/hip_rotation_l/accel	/jointset/back/lumbar_extension/accel	/jointset/patellofemoral_l/patellar_flexion_l/accel	/jointset/knee_l/knee_flexion_l/accel	/jointset/knee_l/knee_adduction_l/accel	/jointset/knee_l/knee_rotation_l/accel	/jointset/ankle_l/ankle_angle_l/accel	/jointset/subtalar_l/subtalar_angle_l/accel	gamma_cid13_p0	gamma_cid13_p1	gamma_cid13_p2	gamma_cid13_p3	gamma_cid13_p4	gamma_cid13_p5	gamma_cid14_p0
1.5	0.08938907243114073	0.02814581960386719	0.8850061324368148	0.4539095283220264	-0.3183636791706952	-0.1717870378680313	-0.7701929822017392	0.6658206046209592	0.6658206046211309	-0.1117559115871001	-0.1745297050958242	0.1747754996243453	0.03783694657594964	0.1055953410936329	0.1657750493556544	0.2840148840175572	-1.402271961457374	0.1045046904336178	-0.5536517711334614	0.8477127629928056	-1.709635172099871	-1.709635172099921	-0.1213431544120813	1.771858662154955e-05	-0.5152017759826172	-0.06885407361660277	-0.1342030651490039	0.02375526866521985	-0.005053222058666855	-0.2186307064107885	0.02838809359895489	0.03830405432852624	0.2395607748715579	-33.31990432728892	-14.06467599627113	5.51545902183497	-2.095612584190486	-675.5948498447658	-80.00178394702135	-19.11436059424225	-0.2228734208087183	0.382310596297059	-0.4810531291925442	-0.2730531333150872	0.3263510953089926	-0.2523199436086586	1.500916971811872	-0.7136067027059276	-0.7136067027059156	-0.2913439767835551	0.03089384285603243	-0.2024761205309417	0.3185932248292566	1.68167297065906e-08	1.169536695068787e-06	-1.679210566160175e-08	1.701829761180118e-07	4.970023146279299e-08	4.737316574213687e-07	9.855392294786787e-08
1.51	0.09043375048573986	0.0298224828909544	0.8878216738589502	0.4398748380929545	-0.3173026911012526	-0.1773369769101091	-0.7616420209326433	0.64869080727447	0.6486908072745369	-0.1129838135372779	-0.1745295186225127	0.1696139651773221	0.03716405366978497	0.1033307494716229	0.1695350979774904	0.2790404045066237	-1.404484154334512	0.1076882433962438	-0.5562800448981454	0.8623516533826711	-1.716090892185401	-1.716090892185378	-0.1242282342066166	1.823517066691103e-05	-0.517027350114713	-0.06570858049046083	-0.128785593474715	0.02253814613407415	-0.005044412802022312	-0.2155702186269619	0.03045423572626785	0.03758594137159078	0.2339262250839918	-32.52845232181807	-13.90633444432544	5.507299837658141	-2.216531069988018	-672.6509100221749	-79.93206553346889	-19.64578669459596	-0.2296879038395196	0.3695091241571392	-0.5135841441165462	-0.1680236623375266	0.3135264707104781	-0.2595906169563198	1.426199455930391	-0.5765640871066685	-0.5765640870955515	-0.2855569006563025	-0.01557380560222893	-0.1609016267235434	0.3147369226997956	1.629846772424293e-08	1.167808262172372e-06	-3.081057272547168e-08	1.688790998288246e-07	5.18891118700311e-08	4.7240595604176e-07	1.000941049456642e-07
1.52	0.09145549544992634	0.03153607809006632	0.8905858827295611	0.4258234816756236	-0.3162100336873827	-0.1829115005946527	-0.7529485058829792	0.6315034508420028	0.631503450841959	-0.1142402596693793	-0.1745293678577137	0.1644365142755411	0.03652305760812037	0.1010087230119342	0.173161431760598	0.2737483737127463	-1.405605199108613	0.1108385593177185	-0.5585686996251541	0.8762235191067972	-1.721146989296139	-1.721146989296042	-0.1270519907958638	1.05768834707626e-05	-0.5183850669337952	-0.0624747047165938	-0.1233681218004467	0.02132102360290514	-0.005035603545377279	-0.2125097308431524	0.03252037785356428	0.03686782841461206	0.2282916752964189	-31.74162011425508	-13.74761891211604	5.499578107410815	-2.347390056515704	-669.7938540364775	-79.88560694571959	-20.15547018698526	-0.2343603883445783	0.3555676285514253	-0.5445633857813134	-0.05482351270778741	0.3197036870787224	-0.1843961360736674	1.347512038663969	-0.433682107747381	-0.4336821077473804	-0.2790793357259687	0.02925886860764761	-0.1089046579281182	0.3362697543742723	1.54362033204497e-08	1.158182849232755e-06	-4.393581288098779e-08	1.666019898413798e-07	5.282780370361473e-08	4.677157036100095e-07	1.008961987559685e-07
1.53	0.0924537637561281	0.03328526343422954	0.8932956373839817	0.4117663399539854	-0.3150860891604463	-0.1885070667935574	-0.7441201378019811	0.6142726193186111	0.6142726193185353	-0.1155247520975514	-0.1745292571364325	0.1592479046806662	0.03591481468061651	0.09864022453668048	0.1766525532345681	0.2681553041698319	-1.405645941797793	0.1139387484349648	-0.5604805490002657	0.8893166946257255	-1.72477697959457	-1.724776979594573	-0.1298440240243006	1.117707794473567e-05	-0.5192514695300069	-0.05916324732189676	-0.1179174648352903	0.01997106459254357	-0.005070611549166612	-0.209578636934678	0.03474238473890476	0.03613722967502622	0.2226759986173604	-30.9138172138094	-13.58862582339991	5.489494548227883	-2.517498892358572	-667.0859285302347	-79.86557976067562	-20.64026232587112	-0.2388097156084509	0.3424541350656301	-0.5737562428448315	0.04786992875316628	0.3033121842122973	-0.1848909734368731	1.270209938331626	-0.2913273072360573	-0.2913273072509065	-0.2787178587001815	-0.01460850757892916	-0.0626710712043745	0.3300080138705317	1.420843634387057e-08	1.140166894997236e-06	-5.6111999446378e-08	1.632908190495362e-07	5.243817017769052e-08	4.594506156853586e-07	1.009140738670624e-07
1.54	0.09342820404987431	0.03506867393878186	0.8959480458421132	0.3977141047206089	-0.3139315156103013	-0.1941198138132537	-0.7351648400398305	0.5970127539289519	0.5970127539288698	-0.1168370553664578	-0.174529154233712	0.154053198457682	0.03533997118343048	0.09624312052173052	0.1800064638384196	0.2622791344549538	-1.404623901455918	0.1169643639587953	-0.562004863783659	0.901609455337629	-1.726953762546803	-1.726953762546906	-0.1326141589446409	9.013174573294158e-06	-0.519604392555685	-0.05579481865307322	-0.1124668078701293	0.01862110558219791	-0.005105619552810993	-0.2066475430262135	0.03696439162424714	0.0354066309354571	0.2170603219382994	-30.09102458682899	-13.42841957692356	5.478834343251846	-2.695781655350351	-664.4707765392064	-79.86790572154916	-21.09704099403971	-0.2400814962839352	0.3281254545277782	-0.6011834201740405	0.1577330935031265	0.3047889683955657	-0.1068892177300836	1.187429077259005	-0.14304063850763	-0.1430406385076299	-0.2746996741066752	0.02870604903848488	-0.006208743821282565	0.3476640091995846	8.069892512019982e-09	1.126096522964485e-06	-4.347373342600455e-08	1.626244359662984e-07	4.734469281232275e-08	4.409567047549588e-07	9.811373341628853e-08
